<svg width="26" height="22" viewBox="0 0 26 22" fill="none" xmlns="http://www.w3.org/2000/svg">
<g id="Group 39479">
<path id="Vector 383" d="M12.9565 4.26086V20.5652" stroke="white" stroke-linecap="round"/>
<path id="Vector 388" d="M24.9131 4.26086V20.5652" stroke="white" stroke-linecap="round"/>
<path id="Vector 389" d="M1 4.26086V20.5652" stroke="white" stroke-linecap="round"/>
<path id="Vector 384" d="M24.9131 20.5653C24.9131 20.5653 23.5064 17.3044 18.5831 17.3044C13.6599 17.3044 12.9565 20.5653 12.9565 20.5653" stroke="white" stroke-linecap="round"/>
<path id="Vector 386" d="M1.00002 20.5653C1.00002 20.5653 2.40667 17.3044 7.32994 17.3044C12.2532 17.3044 12.9565 20.5653 12.9565 20.5653" stroke="white" stroke-linecap="round"/>
<path id="Vector 385" d="M24.9131 4.26087C24.9131 4.26087 23.5064 1 18.5831 1C13.6599 1 12.9565 4.26087 12.9565 4.26087" stroke="white" stroke-linecap="round"/>
<path id="Vector 387" d="M1.00002 4.26087C1.00002 4.26087 2.40667 1 7.32994 1C12.2532 1 12.9565 4.26087 12.9565 4.26087" stroke="white" stroke-linecap="round"/>
</g>
</svg>
