<svg width="42" height="42" viewBox="0 0 42 42" fill="none" xmlns="http://www.w3.org/2000/svg">
<path d="M20.9566 14.2609V30.5652" stroke="white" stroke-linecap="round"/>
<path d="M32.9131 14.2609V30.5652" stroke="white" stroke-linecap="round"/>
<path d="M9 14.2609V30.5652" stroke="white" stroke-linecap="round"/>
<path d="M32.9131 30.5653C32.9131 30.5653 31.5065 27.3044 26.5832 27.3044C21.6599 27.3044 20.9566 30.5653 20.9566 30.5653" stroke="white" stroke-linecap="round"/>
<path d="M9.00008 30.5653C9.00008 30.5653 10.4067 27.3044 15.33 27.3044C20.2533 27.3044 20.9566 30.5653 20.9566 30.5653" stroke="white" stroke-linecap="round"/>
<path d="M32.9131 14.2609C32.9131 14.2609 31.5065 11 26.5832 11C21.6599 11 20.9566 14.2609 20.9566 14.2609" stroke="white" stroke-linecap="round"/>
<path d="M9.00008 14.2609C9.00008 14.2609 10.4067 11 15.33 11C20.2533 11 20.9566 14.2609 20.9566 14.2609" stroke="white" stroke-linecap="round"/>
</svg>
