<svg width="25" height="25" viewBox="0 0 25 25" fill="none" xmlns="http://www.w3.org/2000/svg">
<path d="M5.6 9C5.6 6.01766 8.01766 3.6 11 3.6H16C17.8778 3.6 19.4 5.12223 19.4 7V20C19.4 20.7732 18.7732 21.4 18 21.4H7C6.2268 21.4 5.6 20.7732 5.6 20V9Z" stroke="white" stroke-width="1.2"/>
<path d="M5.84 9.72H8.88C9.98456 9.72 10.88 8.82457 10.88 7.72V3.84" stroke="white" stroke-width="1.2" stroke-linecap="round" stroke-linejoin="round"/>
<mask id="path-3-outside-1_414_9429" maskUnits="userSpaceOnUse" x="7.52002" y="12" width="10" height="5" fill="black">
<rect fill="white" x="7.52002" y="12" width="10" height="5"/>
<path d="M8.49002 14.17H9.13002C9.62502 14.17 9.89502 14.005 9.89502 13.53C9.89502 13.055 9.62502 12.88 9.13002 12.88H8.49002V14.17ZM8.49502 14.645V16.185H7.94002V12.54C7.94002 12.435 7.97002 12.405 8.07502 12.405H9.18002C9.88002 12.405 10.465 12.78 10.465 13.53C10.465 14.28 9.89002 14.645 9.23002 14.645H8.49502ZM11.4969 15.71H12.0819C12.9269 15.71 13.3019 15.195 13.3019 14.3C13.3019 13.26 12.7569 12.855 11.8319 12.88H11.4969V15.71ZM11.9419 16.185H11.0719C10.9669 16.185 10.9369 16.155 10.9369 16.05V12.54C10.9369 12.435 10.9669 12.405 11.0719 12.405H11.9419C13.1619 12.405 13.8769 13.07 13.8769 14.295C13.8769 15.53 13.1619 16.185 11.9419 16.185ZM15.0763 14.455V16.185H14.5163V12.545C14.5163 12.44 14.5463 12.41 14.6513 12.41H16.7213V12.88H15.0763V13.98H16.7063V14.455H15.0763Z"/>
</mask>
<path d="M8.49002 14.17H9.13002C9.62502 14.17 9.89502 14.005 9.89502 13.53C9.89502 13.055 9.62502 12.88 9.13002 12.88H8.49002V14.17ZM8.49502 14.645V16.185H7.94002V12.54C7.94002 12.435 7.97002 12.405 8.07502 12.405H9.18002C9.88002 12.405 10.465 12.78 10.465 13.53C10.465 14.28 9.89002 14.645 9.23002 14.645H8.49502ZM11.4969 15.71H12.0819C12.9269 15.71 13.3019 15.195 13.3019 14.3C13.3019 13.26 12.7569 12.855 11.8319 12.88H11.4969V15.71ZM11.9419 16.185H11.0719C10.9669 16.185 10.9369 16.155 10.9369 16.05V12.54C10.9369 12.435 10.9669 12.405 11.0719 12.405H11.9419C13.1619 12.405 13.8769 13.07 13.8769 14.295C13.8769 15.53 13.1619 16.185 11.9419 16.185ZM15.0763 14.455V16.185H14.5163V12.545C14.5163 12.44 14.5463 12.41 14.6513 12.41H16.7213V12.88H15.0763V13.98H16.7063V14.455H15.0763Z" fill="white"/>
<path d="M8.49002 14.17H8.39002V14.27H8.49002V14.17ZM8.49002 12.88V12.78H8.39002V12.88H8.49002ZM8.49502 14.645V14.545H8.39502V14.645H8.49502ZM8.49502 16.185V16.285H8.59502V16.185H8.49502ZM7.94002 16.185H7.84002V16.285H7.94002V16.185ZM8.49002 14.27H9.13002V14.07H8.49002V14.27ZM9.13002 14.27C9.38473 14.27 9.60361 14.2283 9.75954 14.1071C9.92117 13.9813 9.99502 13.7867 9.99502 13.53H9.79502C9.79502 13.7483 9.73387 13.8737 9.63675 13.9492C9.53393 14.0292 9.37031 14.07 9.13002 14.07V14.27ZM9.99502 13.53C9.99502 13.2733 9.92124 13.0768 9.76048 12.9487C9.6047 12.8245 9.38574 12.78 9.13002 12.78V12.98C9.3693 12.98 9.53284 13.023 9.63581 13.1051C9.7338 13.1832 9.79502 13.3117 9.79502 13.53H9.99502ZM9.13002 12.78H8.49002V12.98H9.13002V12.78ZM8.39002 12.88V14.17H8.59002V12.88H8.39002ZM8.39502 14.645V16.185H8.59502V14.645H8.39502ZM8.49502 16.085H7.94002V16.285H8.49502V16.085ZM8.04002 16.185V12.54H7.84002V16.185H8.04002ZM8.04002 12.54C8.04002 12.5175 8.04174 12.5053 8.04329 12.4992C8.04456 12.4941 8.04445 12.4982 8.03886 12.5038C8.03326 12.5094 8.02915 12.5095 8.03419 12.5083C8.0403 12.5067 8.05254 12.505 8.07502 12.505V12.305C8.02043 12.305 7.94895 12.3109 7.89743 12.3624C7.84592 12.4139 7.84002 12.4854 7.84002 12.54H8.04002ZM8.07502 12.505H9.18002V12.305H8.07502V12.505ZM9.18002 12.505C9.51344 12.505 9.81072 12.5944 10.0224 12.7643C10.2314 12.9319 10.365 13.1839 10.365 13.53H10.565C10.565 13.1261 10.4061 12.8156 10.1476 12.6082C9.89181 12.4031 9.5466 12.305 9.18002 12.305V12.505ZM10.365 13.53C10.365 13.8768 10.2334 14.1264 10.0317 14.2913C9.8274 14.4584 9.54281 14.545 9.23002 14.545V14.745C9.57723 14.745 9.91014 14.6491 10.1583 14.4462C10.4091 14.2411 10.565 13.9332 10.565 13.53H10.365ZM9.23002 14.545H8.49502V14.745H9.23002V14.545ZM11.4969 15.71H11.3969V15.81H11.4969V15.71ZM11.8319 12.88V12.98L11.8346 12.98L11.8319 12.88ZM11.4969 12.88V12.78H11.3969V12.88H11.4969ZM11.4969 15.81H12.0819V15.61H11.4969V15.81ZM12.0819 15.81C12.5256 15.81 12.8625 15.6739 13.0858 15.4044C13.3061 15.1385 13.4019 14.7591 13.4019 14.3H13.2019C13.2019 14.7359 13.1102 15.0615 12.9318 15.2768C12.7563 15.4886 12.4832 15.61 12.0819 15.61V15.81ZM13.4019 14.3C13.4019 13.7636 13.2611 13.3703 12.9809 13.1165C12.7021 12.864 12.3045 12.7672 11.8292 12.78L11.8346 12.98C12.2843 12.9678 12.6216 13.061 12.8466 13.2647C13.0702 13.4672 13.2019 13.7964 13.2019 14.3H13.4019ZM11.8319 12.78H11.4969V12.98H11.8319V12.78ZM11.3969 12.88V15.71H11.5969V12.88H11.3969ZM11.9419 16.085H11.0719V16.285H11.9419V16.085ZM11.0719 16.085C11.0494 16.085 11.0372 16.0833 11.0311 16.0817C11.026 16.0805 11.0301 16.0806 11.0357 16.0862C11.0413 16.0918 11.0414 16.0959 11.0402 16.0908C11.0386 16.0847 11.0369 16.0725 11.0369 16.05H10.8369C10.8369 16.1046 10.8428 16.1761 10.8943 16.2276C10.9458 16.2791 11.0173 16.285 11.0719 16.285V16.085ZM11.0369 16.05V12.54H10.8369V16.05H11.0369ZM11.0369 12.54C11.0369 12.5175 11.0386 12.5053 11.0402 12.4992C11.0414 12.4941 11.0413 12.4982 11.0357 12.5038C11.0301 12.5094 11.026 12.5095 11.0311 12.5083C11.0372 12.5067 11.0494 12.505 11.0719 12.505V12.305C11.0173 12.305 10.9458 12.3109 10.8943 12.3624C10.8428 12.4139 10.8369 12.4854 10.8369 12.54H11.0369ZM11.0719 12.505H11.9419V12.305H11.0719V12.505ZM11.9419 12.505C12.5344 12.505 12.9901 12.6663 13.2975 12.9626C13.6043 13.2584 13.7769 13.702 13.7769 14.295H13.9769C13.9769 13.663 13.792 13.1616 13.4363 12.8186C13.0812 12.4762 12.5694 12.305 11.9419 12.305V12.505ZM13.7769 14.295C13.7769 14.8932 13.6042 15.3366 13.2976 15.631C12.9904 15.926 12.5347 16.085 11.9419 16.085V16.285C12.569 16.285 13.0809 16.1165 13.4362 15.7752C13.7921 15.4334 13.9769 14.9318 13.9769 14.295H13.7769ZM15.0763 14.455V14.355H14.9763V14.455H15.0763ZM15.0763 16.185V16.285H15.1763V16.185H15.0763ZM14.5163 16.185H14.4163V16.285H14.5163V16.185ZM16.7213 12.41H16.8213V12.31H16.7213V12.41ZM16.7213 12.88V12.98H16.8213V12.88H16.7213ZM15.0763 12.88V12.78H14.9763V12.88H15.0763ZM15.0763 13.98H14.9763V14.08H15.0763V13.98ZM16.7063 13.98H16.8063V13.88H16.7063V13.98ZM16.7063 14.455V14.555H16.8063V14.455H16.7063ZM14.9763 14.455V16.185H15.1763V14.455H14.9763ZM15.0763 16.085H14.5163V16.285H15.0763V16.085ZM14.6163 16.185V12.545H14.4163V16.185H14.6163ZM14.6163 12.545C14.6163 12.5225 14.6181 12.5103 14.6196 12.5042C14.6209 12.4991 14.6208 12.5032 14.6152 12.5088C14.6096 12.5144 14.6055 12.5145 14.6105 12.5133C14.6166 12.5117 14.6289 12.51 14.6513 12.51V12.31C14.5968 12.31 14.5253 12.3159 14.4738 12.3674C14.4223 12.4189 14.4163 12.4904 14.4163 12.545H14.6163ZM14.6513 12.51H16.7213V12.31H14.6513V12.51ZM16.6213 12.41V12.88H16.8213V12.41H16.6213ZM16.7213 12.78H15.0763V12.98H16.7213V12.78ZM14.9763 12.88V13.98H15.1763V12.88H14.9763ZM15.0763 14.08H16.7063V13.88H15.0763V14.08ZM16.6063 13.98V14.455H16.8063V13.98H16.6063ZM16.7063 14.355H15.0763V14.555H16.7063V14.355Z" fill="white" mask="url(#path-3-outside-1_414_9429)"/>
</svg>
