<svg width="30" height="30" viewBox="0 0 30 30" fill="none" xmlns="http://www.w3.org/2000/svg">
<path d="M22.8 5.63965H7.2C6.53726 5.63965 6 6.17691 6 6.83965V22.4396C6 23.1024 6.53726 23.6396 7.2 23.6396H22.8C23.4627 23.6396 24 23.1024 24 22.4396V6.83965C24 6.17691 23.4627 5.63965 22.8 5.63965Z" stroke="white" stroke-linecap="round" stroke-linejoin="round"/>
<path d="M16 17.6396H20" stroke="white" stroke-linecap="round" stroke-linejoin="round"/>
<path d="M10 17.6396H12" stroke="white" stroke-linecap="round" stroke-linejoin="round"/>
<path fill-rule="evenodd" clip-rule="evenodd" d="M16 17.6396C16 18.0352 15.8827 18.4219 15.6629 18.7508C15.4432 19.0797 15.1308 19.336 14.7654 19.4874C14.3999 19.6388 13.9978 19.6784 13.6098 19.6012C13.2219 19.524 12.8655 19.3336 12.5858 19.0539C12.3061 18.7742 12.1156 18.4178 12.0384 18.0298C11.9613 17.6419 12.0009 17.2397 12.1522 16.8743C12.3036 16.5088 12.56 16.1965 12.8889 15.9767C13.2178 15.7569 13.6044 15.6396 14 15.6396C14.5304 15.6396 15.0391 15.8504 15.4142 16.2254C15.7893 16.6005 16 17.1092 16 17.6396V17.6396Z" stroke="white" stroke-linecap="round" stroke-linejoin="round"/>
<path d="M16 11.6396H10" stroke="white" stroke-linecap="round" stroke-linejoin="round"/>
<path fill-rule="evenodd" clip-rule="evenodd" d="M20 11.6396C20 11.2441 19.8827 10.8574 19.6629 10.5285C19.4432 10.1996 19.1308 9.94327 18.7654 9.79189C18.3999 9.64052 17.9978 9.60091 17.6098 9.67808C17.2219 9.75525 16.8655 9.94573 16.5858 10.2254C16.3061 10.5051 16.1156 10.8615 16.0384 11.2495C15.9613 11.6374 16.0009 12.0396 16.1522 12.405C16.3036 12.7705 16.56 13.0828 16.8889 13.3026C17.2178 13.5224 17.6044 13.6396 18 13.6396C18.5304 13.6396 19.0391 13.4289 19.4142 13.0539C19.7893 12.6788 20 12.1701 20 11.6396Z" stroke="white" stroke-linecap="round" stroke-linejoin="round"/>
</svg>
