<svg width="30" height="30" viewBox="0 0 30 30" fill="none" xmlns="http://www.w3.org/2000/svg">
<path d="M14.4674 18.5422L11 19L11.4951 15.7987L20.4121 7.5682C20.8062 7.20439 21.3408 7 21.8982 7C22.4557 7 22.9903 7.20439 23.3844 7.5682C23.7786 7.93201 24 8.42544 24 8.93994C24 9.45445 23.7786 9.94788 23.3844 10.3117L14.4674 18.5422Z" stroke="white" stroke-linecap="round" stroke-linejoin="round"/>
<path d="M23 15V21.6667C23 22.0203 22.8595 22.3594 22.6095 22.6095C22.3594 22.8595 22.0203 23 21.6667 23H8.33333C7.97971 23 7.64057 22.8595 7.39052 22.6095C7.14048 22.3594 7 22.0203 7 21.6667V8.33333C7 7.97971 7.14048 7.64057 7.39052 7.39052C7.64057 7.14048 7.97971 7 8.33333 7H15" stroke="white" stroke-linecap="round" stroke-linejoin="round"/>
</svg>
