<svg width="30" height="30" viewBox="0 0 30 30" fill="none" xmlns="http://www.w3.org/2000/svg">
<path d="M13.4014 7.27286C13.5402 7.42686 13.7097 7.54999 13.8991 7.63427C14.0884 7.71855 14.2934 7.7621 14.5007 7.7621C14.7079 7.7621 14.9129 7.71855 15.1023 7.63427C15.2916 7.54999 15.4612 7.42686 15.5999 7.27286L16.3151 6.48811C16.5201 6.26126 16.7902 6.10341 17.0885 6.03621C17.3868 5.96902 17.6985 5.99578 17.9809 6.11281C18.2634 6.22985 18.5027 6.43143 18.666 6.68989C18.8293 6.94835 18.9087 7.25102 18.8931 7.55636L18.8394 8.61478C18.8291 8.82126 18.862 9.02761 18.9363 9.22056C19.0105 9.41352 19.1243 9.58878 19.2704 9.73507C19.4164 9.88136 19.5915 9.99543 19.7844 10.0699C19.9772 10.1444 20.1835 10.1777 20.39 10.1676L21.4484 10.114C21.7536 10.0989 22.0559 10.1786 22.314 10.3421C22.5721 10.5056 22.7733 10.7449 22.89 11.0273C23.0068 11.3096 23.0333 11.6211 22.9661 11.9192C22.8988 12.2172 22.7411 12.4871 22.5144 12.692L21.7267 13.4026C21.5729 13.5416 21.4499 13.7112 21.3657 13.9006C21.2816 14.09 21.2381 14.295 21.2381 14.5022C21.2381 14.7095 21.2816 14.9145 21.3657 15.1039C21.4499 15.2933 21.5729 15.4629 21.7267 15.6019L22.5144 16.3125C22.7413 16.5175 22.8991 16.7877 22.9663 17.0859C23.0335 17.3842 23.0068 17.6959 22.8897 17.9784C22.7727 18.2608 22.5711 18.5001 22.3126 18.6634C22.0542 18.8268 21.7515 18.9061 21.4462 18.8905L20.3878 18.8369C20.1808 18.8262 19.974 18.8591 19.7806 18.9335C19.5872 19.0078 19.4115 19.1219 19.265 19.2685C19.1185 19.415 19.0044 19.5906 18.93 19.784C18.8557 19.9774 18.8227 20.1843 18.8334 20.3912L18.8871 21.4496C18.9006 21.7535 18.8203 22.0541 18.657 22.3106C18.4938 22.5672 18.2555 22.7673 17.9746 22.8837C17.6936 23.0002 17.3837 23.0273 17.0868 22.9614C16.7899 22.8956 16.5205 22.7399 16.3151 22.5156L15.6037 21.7286C15.4648 21.5748 15.2953 21.4519 15.1059 21.3677C14.9166 21.2836 14.7117 21.2401 14.5045 21.2401C14.2972 21.2401 14.0924 21.2836 13.903 21.3677C13.7137 21.4519 13.5441 21.5748 13.4052 21.7286L12.6908 22.5156C12.4858 22.741 12.2162 22.8976 11.9189 22.9642C11.6216 23.0308 11.311 23.0041 11.0295 22.8877C10.7479 22.7713 10.5091 22.5709 10.3456 22.3138C10.1821 22.0567 10.1018 21.7555 10.1158 21.4512L10.1702 20.3927C10.1809 20.1858 10.1479 19.9789 10.0736 19.7855C9.99925 19.5921 9.88513 19.4165 9.73861 19.27C9.5921 19.1235 9.41645 19.0093 9.22305 18.935C9.02964 18.8606 8.82279 18.8277 8.61586 18.8384L7.55743 18.892C7.25222 18.908 6.94956 18.829 6.691 18.6661C6.43244 18.5031 6.23066 18.2641 6.11336 17.9819C5.99606 17.6997 5.969 17.3881 6.03588 17.0898C6.10277 16.7916 6.26032 16.5214 6.48692 16.3163L7.27393 15.6057C7.42774 15.4667 7.55069 15.2971 7.63484 15.1077C7.719 14.9182 7.76248 14.7133 7.76248 14.506C7.76248 14.2988 7.719 14.0938 7.63484 13.9044C7.55069 13.715 7.42774 13.5453 7.27393 13.4064L6.48692 12.692C6.26106 12.4871 6.10398 12.2175 6.03717 11.9199C5.97035 11.6224 5.99705 11.3115 6.11362 11.0297C6.23018 10.7479 6.43093 10.509 6.68841 10.3457C6.9459 10.1823 7.24755 10.1024 7.55214 10.117L8.61056 10.1707C8.81788 10.1816 9.02518 10.1487 9.21899 10.0743C9.41279 9.99987 9.58877 9.8855 9.7355 9.73863C9.88223 9.59176 9.99643 9.41567 10.0707 9.22179C10.1449 9.02791 10.1775 8.82058 10.1664 8.61327L10.1158 7.55409C10.1015 7.24962 10.1815 6.94815 10.3449 6.69083C10.5083 6.43351 10.7471 6.23287 11.0287 6.11628C11.3103 5.99969 11.6211 5.97284 11.9185 6.03938C12.216 6.10593 12.4857 6.26263 12.6908 6.48811L13.4014 7.27286Z" stroke="white" stroke-linecap="round" stroke-linejoin="round"/>
<path d="M14.5007 17.9047C16.3796 17.9047 17.9028 16.3815 17.9028 14.5026C17.9028 12.6237 16.3796 11.1005 14.5007 11.1005C12.6218 11.1005 11.0986 12.6237 11.0986 14.5026C11.0986 16.3815 12.6218 17.9047 14.5007 17.9047Z" stroke="white" stroke-linecap="round" stroke-linejoin="round"/>
</svg>
