<svg width="148" height="82" viewBox="0 0 148 82" fill="none" xmlns="http://www.w3.org/2000/svg">
<rect width="148" height="82" rx="9" fill="white"/>
<path d="M58.94 26.876V30.536C59.288 30.524 59.636 30.476 59.864 30.284C59.9 30.224 60.032 30.2 60.26 30.188C60.488 30.176 60.692 30.188 60.884 30.212C61.28 30.308 61.46 30.56 61.424 30.764C61.388 30.968 61.16 31.16 60.74 31.16H58.94V34.04C58.94 35.876 58.664 36.884 58.172 36.92C57.836 36.956 57.644 36.188 57.644 34.664V27.044C57.644 26.696 57.56 26.432 57.368 26.288C57.116 26.096 56.756 25.976 56.408 25.916C56.276 25.904 56.24 25.772 56.276 25.64C56.312 25.532 56.42 25.4 56.6 25.4C56.9 25.4 57.332 25.448 57.764 25.496C58.196 25.556 58.616 25.64 58.916 25.7C59.06 25.748 59.108 25.94 59.06 26.096C58.964 26.348 58.94 26.624 58.94 26.876ZM56.216 27.404C56.516 27.452 56.612 27.692 56.456 28.016C56.396 28.124 56.312 28.268 56.252 28.376C56.168 28.508 56.108 28.616 56.06 28.712C55.484 29.804 54.764 30.86 53.96 31.808C53.156 32.732 52.256 33.536 51.332 34.064C50.948 34.316 50.708 34.34 50.576 34.256C50.432 34.196 50.432 34.028 50.576 33.896C51.356 33.272 52.172 32.408 52.928 31.436C53.66 30.464 54.32 29.36 54.788 28.244C54.068 28.28 53.54 28.304 53.204 28.34C53.072 28.352 52.916 28.4 52.724 28.46C52.544 28.52 52.424 28.556 52.376 28.58C52.244 28.628 52.124 28.652 51.944 28.592C51.704 28.532 51.2 28.268 50.948 28.064C50.468 27.692 50.648 27.452 51.224 27.5C51.308 27.512 51.488 27.524 51.728 27.56C51.956 27.572 52.244 27.596 52.532 27.596C52.976 27.596 53.384 27.62 53.756 27.608C54.128 27.596 54.452 27.56 54.776 27.464C54.812 27.464 54.86 27.428 54.908 27.416C54.968 27.38 55.028 27.368 55.112 27.356C55.544 27.344 56.024 27.392 56.216 27.404ZM70.5386 26.828V30.056C70.9106 30.044 71.2826 29.984 71.4746 29.792C71.5226 29.744 71.6666 29.72 71.8946 29.708C72.1226 29.696 72.3386 29.708 72.5186 29.732C72.9146 29.828 73.1066 30.08 73.0586 30.284C73.0226 30.512 72.7826 30.692 72.3866 30.692H70.5386V34.04C70.5386 35.876 70.2866 36.884 69.7706 36.92C69.4346 36.956 69.2666 36.176 69.2666 34.688V32C68.5106 32.288 67.6226 32.588 66.7466 32.828C65.8826 33.068 65.0306 33.248 64.3706 33.296C63.6866 33.356 63.2906 33.152 63.2906 32.432V29C63.2906 28.712 63.2186 28.46 63.0746 28.328C62.8946 28.196 62.5226 28.112 62.1986 28.064C62.0906 28.064 62.0306 27.932 62.0426 27.8C62.0426 27.656 62.1146 27.536 62.2946 27.524C62.5466 27.524 63.0026 27.536 63.4466 27.548C63.8906 27.584 64.3346 27.632 64.5866 27.68C64.7186 27.728 64.7546 27.944 64.7066 28.1C64.6586 28.304 64.6466 28.664 64.6466 28.904V31.832C64.6466 32.168 64.8626 32.24 65.1026 32.24C65.4866 32.24 66.2186 32.12 66.9866 31.964C67.7666 31.784 68.6066 31.58 69.2666 31.352V27.044C69.2666 26.696 69.1826 26.432 68.9906 26.288C68.7386 26.096 68.3786 25.976 68.0306 25.916C67.8986 25.904 67.8506 25.772 67.8986 25.64C67.9346 25.532 68.0306 25.4 68.2106 25.4C68.5106 25.4 68.9426 25.448 69.3746 25.496C69.8066 25.556 70.2386 25.64 70.5386 25.7C70.6706 25.748 70.7186 25.94 70.6706 26.096C70.6106 26.336 70.5506 26.588 70.5386 26.828ZM80.9371 34.664V32.204C80.2291 32.456 79.2451 32.768 78.2851 33.008C77.3371 33.26 76.4011 33.452 75.8251 33.452C75.1531 33.464 74.9011 33.296 74.9011 32.588V28.796C74.9011 28.328 74.5891 28.196 74.0611 28.1C73.9051 28.088 73.8331 27.956 73.8451 27.824C73.8571 27.716 73.9651 27.596 74.1691 27.56C74.4451 27.536 74.7811 27.536 75.1771 27.572C75.5731 27.596 75.9451 27.632 76.2691 27.68C76.3651 27.692 76.6531 27.716 76.9531 27.704C77.2531 27.704 77.5531 27.668 77.7331 27.584C77.7691 27.572 77.8291 27.536 77.8771 27.488C77.9371 27.452 77.9971 27.428 78.0451 27.416C78.3811 27.368 78.8011 27.38 79.1851 27.428C79.4731 27.476 79.6531 27.68 79.6531 27.884C79.6531 28.088 79.4731 28.316 79.0771 28.328C78.8371 28.364 78.2131 28.364 77.6251 28.364H76.2571V31.988C76.2571 32.324 76.4371 32.36 76.6651 32.36C77.0971 32.36 77.8531 32.252 78.6691 32.096C79.4731 31.94 80.3131 31.748 80.9371 31.556V27.044C80.9371 26.696 80.8531 26.432 80.6611 26.288C80.4091 26.096 80.0491 25.976 79.7011 25.916C79.5691 25.904 79.5211 25.772 79.5691 25.64C79.6051 25.532 79.7011 25.4 79.8811 25.4C80.1811 25.4 80.6131 25.448 81.0451 25.496C81.4771 25.556 81.9091 25.64 82.2091 25.7C82.3411 25.748 82.3891 25.94 82.3411 26.096C82.2811 26.336 82.2211 26.588 82.2091 26.828V30.14C82.5811 30.128 82.9651 30.08 83.1691 29.888C83.2051 29.828 83.3371 29.804 83.5651 29.792C83.7931 29.78 84.0091 29.792 84.1891 29.816C84.5851 29.912 84.7771 30.164 84.7291 30.368C84.6931 30.596 84.4531 30.776 84.0571 30.776H82.2091V34.04C82.2211 35.9 81.9691 36.884 81.4411 36.92C81.1051 36.956 80.9371 36.188 80.9371 34.664ZM94.0717 26.828V30.044C94.4197 30.032 94.8277 29.972 95.0197 29.78C95.1157 29.672 95.6797 29.66 96.0637 29.708C96.4597 29.804 96.6397 30.056 96.5917 30.26C96.5557 30.488 96.3277 30.668 95.9077 30.668H94.0717V34.04C94.0717 35.876 93.8077 36.884 93.3157 36.92C92.9797 36.956 92.7877 36.188 92.7877 34.664V32.684C92.1277 32.936 91.2517 33.236 90.3397 33.476C89.4277 33.716 88.4677 33.92 87.6637 33.98C86.9437 34.04 86.5957 33.8 86.5957 33.08V31.088C86.5957 30.572 86.4037 30.428 85.9237 30.332C85.7317 30.284 85.6477 30.188 85.6837 30.044C85.7197 29.9 85.8157 29.828 85.9837 29.816C86.2357 29.816 86.6077 29.828 86.9917 29.864C87.3637 29.9 87.7357 29.948 87.9877 29.96C88.1797 29.972 88.4797 29.984 88.7797 29.984C89.1037 29.984 89.3917 29.972 89.6197 29.96L89.6437 27.896C89.4517 27.896 89.1997 27.908 88.9597 27.92C88.7197 27.932 88.4797 27.944 88.3357 27.944C88.1797 27.956 87.9997 27.992 87.8437 28.04C87.6997 28.088 87.5557 28.136 87.5077 28.148C87.3997 28.196 87.2317 28.22 87.0397 28.16C86.7037 28.064 86.3677 27.86 86.0317 27.656C85.6957 27.464 85.7677 27.152 86.2117 27.188C86.4637 27.224 86.7517 27.224 87.0397 27.26C87.3277 27.272 87.6157 27.284 87.8677 27.284C88.0717 27.284 88.3477 27.296 88.6237 27.284C88.9117 27.284 89.1637 27.272 89.3557 27.236C89.3917 27.236 89.4277 27.236 89.4637 27.224L89.5597 27.188C89.5957 27.188 89.6317 27.176 89.6677 27.14C89.7157 27.128 89.7517 27.104 89.7997 27.092C90.1717 27.044 90.7837 27.068 91.0717 27.128C91.3117 27.212 91.3237 27.404 91.2277 27.596C91.1317 27.74 91.0717 27.944 91.0597 28.1L90.7597 30.008C90.9517 30.008 91.1677 30.092 91.1677 30.296C91.1677 30.524 91.0477 30.656 90.5197 30.656H87.9397V32.54C87.9397 32.828 88.1077 32.924 88.3957 32.912C88.9837 32.9 89.7757 32.768 90.5797 32.612C91.3837 32.456 92.1757 32.252 92.7877 32.06V27.044C92.7877 26.696 92.7037 26.432 92.5117 26.288C92.2597 26.096 91.8997 25.976 91.5517 25.916C91.4197 25.904 91.3837 25.772 91.4197 25.64C91.4557 25.532 91.5637 25.4 91.7437 25.4C92.0437 25.4 92.4757 25.448 92.9077 25.496C93.3397 25.556 93.7597 25.64 94.0597 25.7C94.2037 25.748 94.2517 25.94 94.2037 26.096C94.1197 26.336 94.0837 26.588 94.0717 26.828Z" fill="black"/>
<path d="M53.396 53.108C54.56 53.108 55.1 51.884 55.1 49.28C55.1 46.7 54.56 45.452 53.396 45.452C52.28 45.452 51.716 46.724 51.716 49.28C51.716 51.884 52.244 53.108 53.396 53.108ZM55.604 52.712C55.088 53.444 54.344 53.792 53.396 53.792C51.536 53.792 50.372 52.412 50.372 49.28C50.372 46.16 51.536 44.78 53.396 44.78C55.28 44.78 56.42 46.172 56.42 49.28C56.42 50.852 56.132 51.98 55.604 52.712ZM61.5829 46.424V52.496C61.5829 52.796 61.6549 52.964 61.7869 53.012C62.0149 53.096 62.3149 53.12 62.5189 53.132C62.7229 53.144 62.8069 53.192 62.8069 53.42C62.8069 53.648 62.6629 53.672 62.4829 53.672C62.2309 53.672 61.0189 53.648 60.9589 53.648C60.8629 53.648 59.6749 53.672 59.2909 53.672C59.1109 53.672 58.9669 53.648 58.9669 53.42C58.9669 53.192 59.0509 53.144 59.2549 53.132C59.6029 53.12 59.9029 53.096 60.1069 53.012C60.2509 52.964 60.3229 52.796 60.3229 52.496V46.7C60.3229 46.412 60.2509 46.256 60.1189 46.232C59.7709 46.184 59.4109 46.172 59.1109 46.172C58.9189 46.172 58.7749 46.124 58.7749 45.896C58.7749 45.692 58.8469 45.644 59.0509 45.608C59.7829 45.428 60.6469 45.056 61.1389 44.756H61.1269C61.3549 44.576 61.6549 44.624 61.6189 44.948C61.5829 45.464 61.5829 45.944 61.5829 46.424ZM67.3098 52.496H69.2778C69.8058 52.496 70.0458 52.4 70.2018 52.112C70.3098 51.932 70.4298 51.62 70.4898 51.464C70.5498 51.284 70.6338 51.272 70.8378 51.308C70.9938 51.344 71.0658 51.428 71.0418 51.584C70.9578 52.22 70.8378 52.784 70.6578 53.444C70.6218 53.552 70.5498 53.6 70.4178 53.6H66.3018C66.0258 53.6 65.7618 53.612 65.5098 53.624C65.3178 53.624 65.2098 53.48 65.3538 53.288C65.7138 52.832 66.6618 51.788 67.4658 50.66C68.3658 49.472 69.1218 48.128 69.1218 47.192C69.1218 46.136 68.6058 45.572 67.5858 45.572C66.8178 45.572 66.2418 46.196 65.9178 46.916C65.8338 47.108 65.7618 47.168 65.5098 47.108C65.3298 47.048 65.2698 46.916 65.3298 46.724C65.7018 45.476 66.4698 44.684 67.9698 44.684C69.5058 44.684 70.5018 45.548 70.5018 46.856C70.5018 47.936 69.7218 48.98 68.7618 50.264C68.3778 50.78 67.6098 51.812 67.2378 52.376C67.1778 52.46 67.2018 52.496 67.3098 52.496ZM73.7087 53.396C73.8287 53.468 73.9127 53.564 73.9607 53.672C74.0927 54.044 74.3207 54.14 74.6447 54.14C75.4247 54.14 76.7447 53.06 76.7447 51.524C76.7447 50.192 76.0727 49.256 74.7887 49.256C74.4047 49.256 73.9007 49.364 73.3847 49.544C73.2047 49.604 73.0967 49.544 73.0367 49.352C72.9887 49.172 73.0007 49.064 73.1807 49.004C74.4047 48.584 75.8687 47.72 75.8687 46.592C75.8687 45.884 75.4367 45.512 74.7647 45.512C74.1527 45.512 73.6847 45.944 73.4087 46.46C73.3247 46.652 73.2527 46.712 73.0007 46.652C72.8207 46.592 72.7607 46.46 72.8207 46.268C73.1447 45.308 74.0087 44.672 75.1727 44.672C76.5647 44.672 77.2007 45.464 77.2007 46.388C77.2007 46.784 77.0807 47.156 76.7927 47.504C76.5167 47.852 76.0967 48.152 75.5087 48.476C75.4247 48.512 75.4607 48.536 75.5567 48.536C77.2487 48.536 78.0887 49.604 78.0887 50.948C78.0887 53.672 75.8207 54.824 73.8647 54.824C73.3127 54.824 72.6287 54.572 72.6287 53.936C72.6287 53.588 72.8567 53.288 73.3247 53.288C73.4567 53.288 73.5887 53.324 73.7087 53.396ZM84.5476 51.428V52.508C84.5476 52.808 84.6196 52.976 84.7516 53.024C84.9796 53.108 85.1836 53.12 85.3876 53.132C85.6156 53.144 85.6756 53.192 85.6756 53.42C85.6756 53.648 85.5436 53.672 85.3516 53.672C85.1236 53.672 83.9596 53.648 83.9116 53.648C83.6476 53.648 82.8916 53.672 82.4956 53.672H82.2436C82.0636 53.672 81.9316 53.648 81.9316 53.42C81.9316 53.192 82.0156 53.144 82.2076 53.132C82.5796 53.12 82.8676 53.108 83.0956 53.024C83.2276 52.976 83.2996 52.808 83.2996 52.508V51.428C83.2996 51.296 83.2756 51.26 83.1436 51.26H80.2396C79.8676 51.26 79.7716 51.056 79.7716 50.78C79.7716 50.624 79.8196 50.48 79.9276 50.336L84.0916 43.94C84.1876 43.808 84.1996 43.736 84.4036 43.736H84.9796C85.2076 43.736 85.1716 43.868 85.0876 44.012L80.8396 50.468C80.8156 50.504 80.8276 50.528 80.8756 50.528H83.1436C83.2756 50.528 83.2996 50.516 83.2996 50.384V47.564C83.2996 47.276 83.3956 47.108 83.7916 46.952C84.2116 46.76 84.5476 46.856 84.5476 47.192V50.384C84.5476 50.492 84.5716 50.528 84.7036 50.528H85.5196C85.7236 50.528 85.8436 50.552 85.8436 50.888C85.8436 51.212 85.6876 51.26 85.5076 51.26H84.7036C84.5716 51.26 84.5476 51.284 84.5476 51.428ZM92.1465 44.756L92.0145 45.452C91.9785 45.656 91.8705 45.668 91.7265 45.704L89.1585 45.896C89.0865 45.908 89.0385 45.944 89.0265 46.004L88.6665 47.648C88.6545 47.732 88.6665 47.792 88.7625 47.792C91.0785 47.792 92.7345 48.356 92.7345 50.528C92.7345 52.976 90.5865 54.152 87.8025 54.44C87.5625 54.452 87.5025 54.356 87.4905 54.176C87.4785 54.02 87.5385 53.888 87.7185 53.852C90.0585 53.504 91.5465 52.484 91.5465 50.936C91.5465 49.844 90.8145 49.04 89.1225 49.04C88.7505 49.04 88.3305 49.076 87.8625 49.16C87.6345 49.196 87.5145 49.1 87.5625 48.908L88.4625 45.068C88.5105 44.876 88.5705 44.804 88.7625 44.792L91.9065 44.54C92.1345 44.504 92.1825 44.564 92.1465 44.756Z" fill="black"/>
</svg>
