<svg width="360" height="800" viewBox="0 0 360 800" fill="none" xmlns="http://www.w3.org/2000/svg">
<g clip-path="url(#clip0_1083_1862)">
<rect width="360" height="800" fill="#0E0E0E"/>
<path d="M22.9787 22V21.169L26.0994 17.7528C26.4657 17.3527 26.7673 17.005 27.0043 16.7095C27.2412 16.411 27.4167 16.1309 27.5305 15.8693C27.6475 15.6046 27.706 15.3277 27.706 15.0384C27.706 14.706 27.6259 14.4182 27.4659 14.1751C27.3089 13.9319 27.0935 13.7442 26.8196 13.6119C26.5457 13.4795 26.2379 13.4134 25.8963 13.4134C25.5331 13.4134 25.2161 13.4888 24.9453 13.6396C24.6776 13.7873 24.4698 13.995 24.3221 14.2628C24.1774 14.5305 24.1051 14.8445 24.1051 15.2045H23.0156C23.0156 14.6506 23.1433 14.1643 23.3988 13.7457C23.6542 13.3272 24.002 13.0009 24.4421 12.767C24.8853 12.5331 25.3823 12.4162 25.9332 12.4162C26.4872 12.4162 26.9781 12.5331 27.4059 12.767C27.8337 13.0009 28.1692 13.3164 28.4123 13.7134C28.6554 14.1104 28.777 14.5521 28.777 15.0384C28.777 15.3861 28.7139 15.7262 28.5877 16.0586C28.4646 16.3879 28.2492 16.7557 27.9414 17.1619C27.6367 17.5651 27.2135 18.0575 26.6719 18.6392L24.5483 20.9105V20.9844H28.9432V22H22.9787ZM31.6623 20.7905C31.4345 20.7905 31.2391 20.7089 31.076 20.5458C30.9129 20.3827 30.8313 20.1873 30.8313 19.9595C30.8313 19.7318 30.9129 19.5363 31.076 19.3732C31.2391 19.2101 31.4345 19.1286 31.6623 19.1286C31.89 19.1286 32.0855 19.2101 32.2486 19.3732C32.4117 19.5363 32.4933 19.7318 32.4933 19.9595C32.4933 20.1103 32.4548 20.2488 32.3778 20.375C32.304 20.5012 32.204 20.6027 32.0778 20.6797C31.9547 20.7536 31.8162 20.7905 31.6623 20.7905ZM31.6623 16.0078C31.4345 16.0078 31.2391 15.9263 31.076 15.7631C30.9129 15.6 30.8313 15.4046 30.8313 15.1768C30.8313 14.9491 30.9129 14.7537 31.076 14.5906C31.2391 14.4274 31.4345 14.3459 31.6623 14.3459C31.89 14.3459 32.0855 14.4274 32.2486 14.5906C32.4117 14.7537 32.4933 14.9491 32.4933 15.1768C32.4933 15.3277 32.4548 15.4661 32.3778 15.5923C32.304 15.7185 32.204 15.8201 32.0778 15.897C31.9547 15.9709 31.8162 16.0078 31.6623 16.0078ZM34.2083 20.0611V19.1193L38.3631 12.5455H39.0463V14.0043H38.5847L35.4455 18.9716V19.0455H41.0407V20.0611H34.2083ZM38.6586 22V19.7749V19.3363V12.5455H39.748V22H38.6586ZM45.9653 22.1293C45.3559 22.1293 44.8127 22.0246 44.3357 21.8153C43.8617 21.6061 43.4847 21.3152 43.2046 20.9428C42.9276 20.5674 42.7768 20.1319 42.7522 19.6364H43.9156C43.9402 19.9411 44.0448 20.2042 44.2295 20.4258C44.4142 20.6443 44.6557 20.8136 44.9543 20.9336C45.2528 21.0536 45.5837 21.1136 45.9468 21.1136C46.3531 21.1136 46.7132 21.0429 47.0271 20.9013C47.341 20.7597 47.5872 20.5627 47.7657 20.3104C47.9442 20.058 48.0335 19.7656 48.0335 19.4332C48.0335 19.0855 47.9473 18.7792 47.7749 18.5146C47.6026 18.2468 47.3502 18.0375 47.0178 17.8867C46.6855 17.7359 46.2792 17.6605 45.7991 17.6605H45.042V16.6449H45.7991C46.1746 16.6449 46.5039 16.5772 46.787 16.4418C47.0732 16.3063 47.2964 16.1155 47.4564 15.8693C47.6195 15.6231 47.7011 15.3338 47.7011 15.0014C47.7011 14.6813 47.6303 14.4028 47.4887 14.1658C47.3472 13.9289 47.1471 13.7442 46.8886 13.6119C46.6331 13.4795 46.3315 13.4134 45.9838 13.4134C45.6575 13.4134 45.3498 13.4734 45.0605 13.5934C44.7742 13.7103 44.5403 13.8812 44.3588 14.1058C44.1772 14.3274 44.0787 14.5952 44.0633 14.9091H42.9553C42.9738 14.4136 43.1231 13.9796 43.4031 13.6072C43.6832 13.2318 44.0494 12.9394 44.5019 12.7301C44.9574 12.5208 45.4575 12.4162 46.0022 12.4162C46.587 12.4162 47.0886 12.5347 47.5072 12.7717C47.9258 13.0056 48.2474 13.3149 48.472 13.6996C48.6967 14.0843 48.809 14.4998 48.809 14.946C48.809 15.4785 48.669 15.9324 48.3889 16.3079C48.1119 16.6834 47.7349 16.9434 47.2579 17.0881V17.1619C47.855 17.2604 48.3212 17.5143 48.6567 17.9237C48.9922 18.3299 49.1599 18.8331 49.1599 19.4332C49.1599 19.9472 49.0199 20.4089 48.7398 20.8182C48.4628 21.2244 48.0843 21.5445 47.6041 21.7784C47.124 22.0123 46.5777 22.1293 45.9653 22.1293Z" fill="white"/>
<path d="M303.757 20.0611V19.1193L307.912 12.5455H308.595V14.0043H308.134L304.994 18.9716V19.0455H310.589V20.0611H303.757ZM308.207 22V19.7749V19.3363V12.5455H309.297V22H308.207ZM312.098 20.0611V19.1193L316.253 12.5455H316.936V14.0043H316.474L313.335 18.9716V19.0455H318.93V20.0611H312.098ZM316.548 22V19.7749V19.3363V12.5455H317.638V22H316.548ZM325.48 20.2273V19.7287C325.48 19.384 325.551 19.0685 325.692 18.7823C325.837 18.493 326.046 18.2622 326.32 18.0898C326.597 17.9144 326.933 17.8267 327.327 17.8267C327.727 17.8267 328.062 17.9144 328.333 18.0898C328.604 18.2622 328.808 18.493 328.947 18.7823C329.085 19.0685 329.155 19.384 329.155 19.7287V20.2273C329.155 20.572 329.084 20.889 328.942 21.1783C328.804 21.4645 328.598 21.6953 328.324 21.8707C328.053 22.0431 327.72 22.1293 327.327 22.1293C326.926 22.1293 326.589 22.0431 326.316 21.8707C326.042 21.6953 325.834 21.4645 325.692 21.1783C325.551 20.889 325.48 20.572 325.48 20.2273ZM326.422 19.7287V20.2273C326.422 20.5135 326.489 20.7705 326.625 20.9982C326.76 21.2229 326.994 21.3352 327.327 21.3352C327.65 21.3352 327.877 21.2229 328.01 20.9982C328.145 20.7705 328.213 20.5135 328.213 20.2273V19.7287C328.213 19.4425 328.148 19.187 328.019 18.9624C327.89 18.7346 327.659 18.6207 327.327 18.6207C327.003 18.6207 326.771 18.7346 326.629 18.9624C326.491 19.187 326.422 19.4425 326.422 19.7287ZM320.771 14.8168V14.3182C320.771 13.9735 320.842 13.658 320.983 13.3718C321.128 13.0825 321.337 12.8517 321.611 12.6793C321.888 12.5039 322.224 12.4162 322.618 12.4162C323.018 12.4162 323.353 12.5039 323.624 12.6793C323.895 12.8517 324.1 13.0825 324.238 13.3718C324.377 13.658 324.446 13.9735 324.446 14.3182V14.8168C324.446 15.1615 324.375 15.4785 324.233 15.7678C324.095 16.054 323.889 16.2848 323.615 16.4602C323.344 16.6326 323.012 16.7188 322.618 16.7188C322.218 16.7188 321.881 16.6326 321.607 16.4602C321.333 16.2848 321.125 16.054 320.983 15.7678C320.842 15.4785 320.771 15.1615 320.771 14.8168ZM321.713 14.3182V14.8168C321.713 15.103 321.781 15.36 321.916 15.5877C322.051 15.8124 322.285 15.9247 322.618 15.9247C322.941 15.9247 323.169 15.8124 323.301 15.5877C323.436 15.36 323.504 15.103 323.504 14.8168V14.3182C323.504 14.032 323.439 13.7765 323.31 13.5518C323.181 13.3241 322.95 13.2102 322.618 13.2102C322.295 13.2102 322.062 13.3241 321.921 13.5518C321.782 13.7765 321.713 14.032 321.713 14.3182ZM321.122 22L327.622 12.5455H328.675L322.175 22H321.122Z" fill="white"/>
<path d="M337.008 14.8H332.9C332.403 14.8 332 15.203 332 15.7V21.1C332 21.5971 332.403 22 332.9 22H337.008C337.505 22 337.908 21.5971 337.908 21.1V15.7C337.908 15.203 337.505 14.8 337.008 14.8Z" stroke="white" stroke-linecap="square"/>
<path d="M333.688 14.8V13H336.22V14.8" stroke="white"/>
<path d="M281.756 21.5298C281.756 21.6545 281.806 21.7741 281.895 21.8622C281.984 21.9504 282.105 22 282.232 22C282.358 22 282.479 21.9504 282.568 21.8622C282.657 21.7741 282.707 21.6545 282.707 21.5298C282.707 21.4051 282.657 21.2855 282.568 21.1973C282.479 21.1091 282.358 21.0596 282.232 21.0596C282.105 21.0596 281.984 21.1091 281.895 21.1973C281.806 21.2855 281.756 21.4051 281.756 21.5298Z" stroke="white" stroke-linecap="square"/>
<path d="M284.266 19.3364C283.649 18.726 282.811 18.3831 281.938 18.3831C281.065 18.3831 280.227 18.726 279.61 19.3364" stroke="white" stroke-linecap="square"/>
<path d="M285.664 17.9554C284.676 16.9786 283.336 16.4299 281.939 16.4299C280.542 16.4299 279.202 16.9786 278.214 17.9554" stroke="white" stroke-linecap="square"/>
<path d="M286.878 16.3996C285.537 15.1639 283.772 14.4768 281.939 14.4768C280.106 14.4768 278.341 15.1639 277 16.3996" stroke="white" stroke-linecap="square"/>
<path d="M299 14V22M296.333 16.3529V22M293.667 18.2353V22M291 20.5882V22" stroke="white" stroke-linecap="round"/>
<g filter="url(#filter0_f_1083_1862)">
<rect x="49" y="177" width="262" height="393" fill="url(#paint0_linear_1083_1862)" fill-opacity="0.6"/>
</g>
<path d="M372 438L306 154H60.5L-6 442C-29.6667 383.667 -33.5 150.2 -33.5 147C-33.5 143.8 18.1667 94.3333 44 70L228 67L382.5 121L372 438Z" fill="#0E0E0E"/>
</g>
<defs>
<filter id="filter0_f_1083_1862" x="-3" y="125" width="366" height="497" filterUnits="userSpaceOnUse" color-interpolation-filters="sRGB">
<feFlood flood-opacity="0" result="BackgroundImageFix"/>
<feBlend mode="normal" in="SourceGraphic" in2="BackgroundImageFix" result="shape"/>
<feGaussianBlur stdDeviation="26" result="effect1_foregroundBlur_1083_1862"/>
</filter>
<linearGradient id="paint0_linear_1083_1862" x1="180" y1="177" x2="180" y2="570" gradientUnits="userSpaceOnUse">
<stop stop-color="#B177F8"/>
<stop offset="1" stop-color="#684692" stop-opacity="0"/>
</linearGradient>
<clipPath id="clip0_1083_1862">
<rect width="360" height="800" fill="white"/>
</clipPath>
</defs>
</svg>
